<?xml version="1.0" encoding="UTF-8" ?>
<!DOCTYPE svg PUBLIC "-//W3C//DTD SVG 1.1//EN" "http://www.w3.org/Graphics/SVG/1.1/DTD/svg11.dtd">
<svg width="1531pt" height="167pt" viewBox="0 0 1531 167" version="1.1" xmlns="http://www.w3.org/2000/svg">
<g id="#000000ff">
<path fill="#000000" opacity="1.00" d=" M 0.00 0.00 L 112.23 0.00 C 112.23 3.68 112.23 7.37 112.23 11.05 C 115.90 10.98 119.57 11.00 123.23 11.00 C 123.23 23.00 123.23 35.00 123.23 47.00 C 96.57 46.99 69.90 46.98 43.23 47.01 C 43.24 51.00 43.24 55.00 43.23 58.99 C 66.23 59.02 89.23 59.00 112.23 59.00 C 112.23 63.02 112.24 67.03 112.23 71.05 C 115.90 70.98 119.57 71.00 123.23 71.00 C 123.23 103.00 123.23 135.00 123.23 167.00 L 5.17 167.00 C 5.18 161.04 5.16 155.07 5.18 149.11 C 3.45 149.02 1.73 148.94 0.00 148.85 L 0.00 119.07 C 26.73 118.89 53.45 119.12 80.18 118.95 C 80.17 114.98 80.17 111.02 80.18 107.05 C 55.18 106.93 30.17 107.02 5.17 107.00 C 5.18 101.04 5.16 95.07 5.18 89.11 C 3.45 89.02 1.73 88.95 0.00 88.85 L 0.00 0.00 M 112.19 13.04 C 112.19 13.51 112.19 14.47 112.18 14.94 C 114.51 14.99 116.84 15.02 119.17 15.09 C 119.15 24.37 119.15 33.64 119.17 42.92 C 92.50 43.10 65.82 42.93 39.15 43.00 C 39.16 48.34 39.16 53.67 39.15 59.01 C 39.70 58.99 40.79 58.97 41.33 58.95 C 41.32 54.30 41.33 49.65 41.32 45.00 C 67.99 45.00 94.66 45.04 121.33 44.98 C 121.32 34.33 121.32 23.67 121.33 13.02 C 118.28 13.00 115.24 12.99 112.19 13.04 M 112.23 16.91 C 112.24 20.94 112.23 24.97 112.23 29.00 C 85.57 28.95 58.90 29.07 32.23 28.94 C 32.24 38.99 32.24 49.04 32.23 59.09 C 33.88 59.02 35.53 58.97 37.18 58.91 C 37.16 52.94 37.18 46.97 37.17 41.00 C 63.84 40.96 90.51 41.09 117.18 40.94 C 117.17 32.99 117.16 25.04 117.18 17.09 C 115.53 17.03 113.88 16.98 112.23 16.91 M 112.19 73.04 C 112.19 73.51 112.19 74.47 112.18 74.94 C 114.51 74.99 116.84 75.02 119.17 75.09 C 119.15 104.37 119.15 133.64 119.17 162.92 C 82.55 163.10 45.94 162.94 9.32 163.00 C 9.33 158.35 9.32 153.70 9.33 149.05 C 8.79 149.03 7.70 149.01 7.15 148.99 C 7.16 154.33 7.16 159.66 7.15 165.00 C 45.21 165.00 83.27 165.03 121.33 164.98 C 121.32 134.33 121.32 103.67 121.33 73.02 C 118.28 73.00 115.24 72.99 112.19 73.04 M 112.23 76.91 C 112.24 100.94 112.23 124.97 112.23 149.00 C 78.57 149.00 44.90 148.98 11.23 149.01 C 11.24 153.00 11.24 157.00 11.23 160.99 C 46.55 160.98 81.87 161.09 117.18 160.94 C 117.17 132.99 117.16 105.04 117.18 77.09 C 115.53 77.03 113.88 76.98 112.23 76.91 M 7.15 88.99 C 7.16 94.33 7.16 99.66 7.15 105.00 C 31.50 104.98 55.84 105.08 80.19 104.94 C 80.19 104.47 80.19 103.53 80.19 103.06 C 56.57 102.91 32.95 103.03 9.32 103.00 C 9.33 98.35 9.32 93.70 9.33 89.05 C 8.79 89.03 7.70 89.01 7.15 88.99 M 11.23 89.01 C 11.24 93.00 11.24 97.00 11.23 100.99 C 34.21 100.98 57.20 101.08 80.18 100.94 C 80.17 96.98 80.17 93.02 80.18 89.06 C 57.20 88.92 34.21 89.01 11.23 89.01 Z" />
<path fill="#000000" opacity="1.00" d=" M 192.17 0.00 L 224.23 0.00 C 224.23 3.68 224.23 7.37 224.23 11.05 C 227.90 10.98 231.56 11.00 235.23 11.00 C 235.23 27.00 235.24 43.00 235.23 58.99 C 242.21 59.02 249.20 59.03 256.18 58.95 C 256.16 48.97 256.18 38.98 256.17 29.00 C 261.51 28.99 266.84 29.03 272.18 28.95 C 272.16 19.30 272.18 9.65 272.17 0.00 L 304.23 0.00 C 304.23 3.68 304.23 7.37 304.23 11.05 C 307.90 10.98 311.56 11.00 315.23 11.00 C 315.23 23.00 315.23 35.00 315.23 47.00 C 309.90 47.01 304.56 46.96 299.23 47.01 C 299.24 57.00 299.23 67.00 299.23 77.00 C 293.90 77.01 288.56 76.96 283.23 77.01 C 283.23 81.00 283.23 85.00 283.23 88.99 C 284.90 89.00 286.56 89.00 288.23 89.00 C 288.23 93.02 288.23 97.03 288.23 101.05 C 291.90 100.98 295.56 101.00 299.23 101.00 C 299.23 107.00 299.24 113.00 299.23 118.99 C 300.90 119.00 302.56 119.00 304.23 119.00 C 304.23 123.02 304.23 127.03 304.23 131.05 C 307.90 130.98 311.56 131.00 315.23 131.00 C 315.23 143.00 315.23 155.00 315.23 167.00 L 277.17 167.00 C 277.17 161.02 277.16 155.04 277.18 149.07 C 275.50 149.03 273.83 149.00 272.16 148.97 C 272.19 138.99 272.16 129.02 272.18 119.05 C 266.84 118.97 261.51 119.01 256.17 119.00 C 256.17 115.02 256.17 111.03 256.18 107.05 C 249.20 106.97 242.21 106.98 235.23 107.01 C 235.24 127.00 235.23 147.00 235.23 167.00 L 197.17 167.00 C 197.17 161.02 197.17 155.04 197.18 149.07 C 195.50 149.03 193.83 149.00 192.16 148.97 C 192.19 99.31 192.16 49.66 192.17 0.00 M 224.19 13.04 C 224.19 13.52 224.19 14.47 224.19 14.95 C 226.52 14.99 228.84 15.02 231.17 15.09 C 231.13 29.73 231.17 44.37 231.15 59.01 C 231.70 58.99 232.79 58.97 233.33 58.95 C 233.32 43.64 233.33 28.33 233.33 13.02 C 230.28 13.00 227.23 12.99 224.19 13.04 M 304.19 13.04 C 304.19 13.52 304.19 14.47 304.19 14.95 C 306.51 14.99 308.84 15.02 311.17 15.09 C 311.14 24.37 311.15 33.64 311.17 42.92 C 305.83 43.05 300.49 42.97 295.15 43.00 C 295.16 52.98 295.14 62.95 295.17 72.92 C 289.83 73.05 284.49 72.97 279.15 73.00 C 279.15 78.34 279.16 83.67 279.15 89.01 C 279.70 88.99 280.79 88.97 281.33 88.95 C 281.32 84.30 281.33 79.65 281.32 75.00 C 286.66 75.02 291.99 75.02 297.33 74.98 C 297.32 64.99 297.33 54.99 297.32 45.00 C 302.66 45.02 307.99 45.02 313.33 44.98 C 313.32 34.33 313.32 23.67 313.33 13.02 C 310.28 13.00 307.23 12.99 304.19 13.04 M 224.23 16.91 C 224.24 30.97 224.24 45.03 224.23 59.09 C 225.88 59.02 227.53 58.97 229.18 58.91 C 229.17 44.97 229.17 31.03 229.18 17.09 C 227.53 17.03 225.88 16.98 224.23 16.91 M 304.23 16.91 C 304.24 20.94 304.23 24.97 304.23 29.00 C 298.90 28.98 293.56 29.06 288.23 28.94 C 288.24 38.96 288.23 48.98 288.23 59.00 C 282.90 58.98 277.56 59.06 272.23 58.94 C 272.24 68.99 272.24 79.04 272.23 89.09 C 273.88 89.02 275.53 88.97 277.18 88.91 C 277.16 82.94 277.18 76.97 277.17 71.00 C 282.51 70.96 287.84 71.10 293.18 70.94 C 293.16 60.96 293.18 50.98 293.17 41.00 C 298.51 40.96 303.84 41.10 309.18 40.94 C 309.17 32.99 309.16 25.04 309.18 17.09 C 307.53 17.03 305.88 16.98 304.23 16.91 M 224.23 88.94 C 224.24 108.96 224.23 128.98 224.23 149.00 C 217.23 149.02 210.23 148.95 203.23 149.01 C 203.24 153.00 203.24 157.00 203.23 160.99 C 211.88 160.99 220.53 161.08 229.18 160.94 C 229.16 140.96 229.18 120.98 229.17 101.00 C 238.17 100.98 247.18 101.07 256.18 100.94 C 256.17 96.98 256.17 93.02 256.18 89.06 C 245.53 88.88 234.88 89.10 224.23 88.94 M 231.15 103.00 C 231.17 122.98 231.14 142.95 231.17 162.92 C 221.22 163.09 211.27 162.94 201.32 163.00 C 201.33 158.35 201.32 153.70 201.33 149.05 C 200.79 149.03 199.70 149.01 199.15 148.99 C 199.16 154.33 199.15 159.66 199.15 165.00 C 210.54 165.00 221.94 165.03 233.33 164.98 C 233.32 144.99 233.33 124.99 233.32 105.00 C 240.94 105.00 248.57 105.05 256.19 104.94 C 256.19 104.47 256.19 103.53 256.19 103.06 C 247.84 102.94 239.50 103.00 231.15 103.00 M 288.19 103.04 C 288.19 103.51 288.19 104.47 288.19 104.95 C 290.51 104.99 292.84 105.02 295.17 105.09 C 295.14 109.73 295.16 114.37 295.15 119.01 C 295.70 118.99 296.79 118.97 297.33 118.95 C 297.32 113.64 297.32 108.33 297.33 103.02 C 294.28 103.00 291.24 102.99 288.19 103.04 M 288.23 106.91 C 288.23 110.97 288.23 115.03 288.23 119.09 C 289.88 119.02 291.53 118.97 293.18 118.91 C 293.17 114.97 293.17 111.03 293.18 107.09 C 291.53 107.03 289.88 106.97 288.23 106.91 M 304.19 133.04 C 304.19 133.51 304.19 134.47 304.18 134.94 C 306.51 134.99 308.84 135.02 311.17 135.09 C 311.14 144.37 311.15 153.64 311.17 162.92 C 301.22 163.09 291.27 162.94 281.32 163.00 C 281.33 158.35 281.32 153.70 281.33 149.05 C 280.79 149.03 279.70 149.01 279.15 148.99 C 279.16 154.33 279.15 159.66 279.15 165.00 C 290.54 165.00 301.94 165.03 313.33 164.98 C 313.32 154.32 313.32 143.67 313.33 133.02 C 310.28 133.00 307.24 132.99 304.19 133.04 M 304.23 136.91 C 304.24 140.94 304.23 144.97 304.23 149.00 C 297.23 149.02 290.23 148.95 283.23 149.01 C 283.23 153.00 283.24 157.00 283.23 160.99 C 291.88 160.99 300.53 161.08 309.18 160.94 C 309.17 152.99 309.16 145.04 309.18 137.09 C 307.53 137.03 305.88 136.97 304.23 136.91 Z" />
<path fill="#000000" opacity="1.00" d=" M 384.17 0.00 L 496.23 0.00 C 496.23 3.68 496.23 7.37 496.23 11.05 C 499.90 10.98 503.56 11.00 507.23 11.00 C 507.23 23.00 507.23 35.00 507.23 47.00 C 480.57 46.99 453.90 46.98 427.23 47.01 C 427.23 51.00 427.23 55.00 427.23 58.99 C 439.56 59.03 451.90 59.00 464.23 59.00 C 464.23 63.02 464.23 67.03 464.23 71.05 C 467.90 70.98 471.56 71.00 475.23 71.00 C 475.23 83.00 475.23 95.00 475.23 107.00 C 459.23 106.99 443.23 106.98 427.23 107.01 C 427.23 111.00 427.23 115.00 427.23 118.99 C 450.23 119.02 473.23 119.00 496.23 119.00 C 496.23 123.02 496.23 127.03 496.23 131.05 C 499.90 130.98 503.56 131.00 507.23 131.00 C 507.23 143.00 507.23 155.00 507.23 167.00 L 389.17 167.00 C 389.17 161.02 389.16 155.04 389.18 149.07 C 387.50 149.03 385.83 149.00 384.16 148.97 C 384.19 99.31 384.16 49.66 384.17 0.00 M 496.19 13.04 C 496.19 13.52 496.19 14.47 496.19 14.95 C 498.51 14.99 500.84 15.02 503.17 15.09 C 503.14 24.37 503.15 33.64 503.17 42.92 C 476.50 43.10 449.82 42.93 423.15 43.00 C 423.15 48.34 423.16 53.67 423.15 59.01 C 423.70 58.99 424.79 58.97 425.33 58.95 C 425.32 54.30 425.33 49.65 425.32 45.00 C 451.99 45.00 478.66 45.04 505.33 44.98 C 505.32 34.33 505.32 23.67 505.33 13.02 C 502.28 13.00 499.23 12.99 496.19 13.04 M 496.23 16.91 C 496.24 20.94 496.23 24.97 496.23 29.00 C 469.57 28.95 442.90 29.07 416.23 28.94 C 416.24 38.99 416.24 49.04 416.23 59.09 C 417.88 59.02 419.53 58.97 421.18 58.91 C 421.16 52.94 421.18 46.97 421.17 41.00 C 447.84 40.97 474.51 41.09 501.18 40.94 C 501.17 32.99 501.16 25.04 501.18 17.09 C 499.52 17.03 497.88 16.98 496.23 16.91 M 464.19 73.04 C 464.19 73.51 464.19 74.47 464.19 74.95 C 466.51 74.99 468.84 75.02 471.17 75.09 C 471.14 84.37 471.15 93.64 471.17 102.92 C 455.16 103.10 439.16 102.93 423.15 103.00 C 423.15 108.34 423.16 113.67 423.15 119.01 C 423.70 118.99 424.79 118.97 425.33 118.95 C 425.32 114.30 425.33 109.65 425.32 105.00 C 441.33 105.00 457.33 105.04 473.33 104.98 C 473.32 94.33 473.32 83.67 473.33 73.02 C 470.28 73.00 467.24 72.99 464.19 73.04 M 464.23 76.91 C 464.24 80.94 464.23 84.97 464.23 89.00 C 448.23 88.95 432.23 89.07 416.23 88.94 C 416.24 98.99 416.24 109.04 416.23 119.09 C 417.88 119.02 419.53 118.97 421.18 118.91 C 421.16 112.94 421.18 106.97 421.17 101.00 C 437.17 100.97 453.18 101.09 469.18 100.94 C 469.17 92.99 469.16 85.04 469.18 77.09 C 467.52 77.03 465.88 76.98 464.23 76.91 M 496.19 133.04 C 496.19 133.52 496.19 134.47 496.19 134.94 C 498.51 134.99 500.84 135.02 503.17 135.09 C 503.14 144.37 503.15 153.64 503.17 162.92 C 466.55 163.10 429.94 162.94 393.32 163.00 C 393.33 158.35 393.32 153.70 393.33 149.05 C 392.79 149.03 391.70 149.01 391.15 148.99 C 391.16 154.33 391.15 159.66 391.15 165.00 C 429.21 165.00 467.27 165.03 505.33 164.98 C 505.32 154.32 505.32 143.67 505.33 133.02 C 502.28 133.00 499.23 132.98 496.19 133.04 M 496.23 136.91 C 496.24 140.94 496.23 144.97 496.23 149.00 C 462.57 149.00 428.90 148.98 395.23 149.01 C 395.23 153.00 395.23 157.00 395.23 160.99 C 430.55 160.98 465.87 161.09 501.18 160.94 C 501.17 152.99 501.16 145.04 501.18 137.09 C 499.52 137.03 497.88 136.97 496.23 136.91 Z" />
<path fill="#000000" opacity="1.00" d=" M 576.17 0.00 L 608.23 0.00 C 608.23 3.68 608.23 7.37 608.23 11.05 C 611.90 10.98 615.56 11.00 619.23 11.00 C 619.23 47.00 619.24 83.00 619.23 118.99 C 642.23 119.02 665.23 119.00 688.23 119.00 C 688.23 123.02 688.23 127.03 688.23 131.05 C 691.89 130.98 695.56 131.00 699.23 131.00 C 699.23 143.00 699.23 155.00 699.23 167.00 L 581.17 167.00 C 581.17 161.02 581.16 155.04 581.18 149.07 C 579.50 149.03 577.83 149.00 576.16 148.97 C 576.19 99.31 576.16 49.66 576.17 0.00 M 608.19 13.04 C 608.19 13.52 608.19 14.47 608.19 14.94 C 610.51 14.99 612.83 15.02 615.17 15.09 C 615.13 49.73 615.17 84.37 615.15 119.01 C 615.70 118.99 616.79 118.97 617.33 118.95 C 617.32 83.64 617.33 48.33 617.33 13.02 C 614.28 13.00 611.23 12.99 608.19 13.04 M 608.23 16.91 C 608.24 50.97 608.24 85.03 608.23 119.09 C 609.87 119.02 611.52 118.97 613.18 118.91 C 613.17 84.97 613.17 51.03 613.18 17.09 C 611.52 17.03 609.87 16.98 608.23 16.91 M 688.19 133.04 C 688.19 133.52 688.19 134.47 688.19 134.95 C 690.51 134.99 692.83 135.02 695.17 135.09 C 695.14 144.37 695.14 153.64 695.17 162.92 C 658.55 163.10 621.94 162.94 585.32 163.00 C 585.33 158.35 585.32 153.70 585.33 149.05 C 584.79 149.03 583.70 149.01 583.15 148.99 C 583.15 154.33 583.15 159.66 583.15 165.00 C 621.21 165.00 659.27 165.03 697.33 164.98 C 697.32 154.32 697.32 143.67 697.33 133.02 C 694.28 133.00 691.23 132.98 688.19 133.04 M 688.23 136.91 C 688.23 140.94 688.23 144.97 688.23 149.00 C 654.56 149.00 620.90 148.98 587.23 149.01 C 587.23 153.00 587.23 157.00 587.23 160.99 C 622.55 160.98 657.87 161.09 693.18 160.94 C 693.17 152.99 693.16 145.04 693.18 137.09 C 691.52 137.03 689.87 136.97 688.23 136.91 Z" />
<path fill="#000000" opacity="1.00" d=" M 768.17 0.00 L 880.23 0.00 C 880.23 3.68 880.23 7.37 880.23 11.05 C 883.89 10.98 887.56 11.00 891.23 11.00 C 891.23 23.00 891.23 35.00 891.23 47.00 C 864.57 46.99 837.90 46.98 811.23 47.01 C 811.23 51.00 811.23 55.00 811.23 58.99 C 823.56 59.03 835.90 59.00 848.23 59.00 C 848.23 63.02 848.23 67.03 848.23 71.05 C 851.89 70.98 855.56 71.00 859.23 71.00 C 859.23 83.00 859.23 95.00 859.23 107.00 C 843.23 106.99 827.23 106.98 811.23 107.01 C 811.23 111.00 811.23 115.00 811.23 118.99 C 834.23 119.02 857.23 119.00 880.23 119.00 C 880.23 123.02 880.23 127.03 880.23 131.05 C 883.89 130.98 887.56 131.00 891.23 131.00 C 891.23 143.00 891.23 155.00 891.23 167.00 L 773.17 167.00 C 773.17 161.02 773.16 155.04 773.18 149.07 C 771.49 149.03 769.83 149.00 768.16 148.97 C 768.19 99.31 768.16 49.66 768.17 0.00 M 880.19 13.04 C 880.19 13.52 880.19 14.47 880.19 14.95 C 882.51 14.99 884.83 15.02 887.17 15.09 C 887.14 24.37 887.14 33.64 887.17 42.92 C 860.50 43.10 833.82 42.93 807.15 43.00 C 807.15 48.34 807.15 53.67 807.15 59.01 C 807.70 58.99 808.79 58.97 809.33 58.95 C 809.32 54.30 809.33 49.65 809.32 45.00 C 835.99 45.00 862.66 45.04 889.33 44.98 C 889.32 34.33 889.32 23.67 889.33 13.02 C 886.28 13.00 883.23 12.99 880.19 13.04 M 880.23 16.91 C 880.23 20.94 880.23 24.97 880.23 29.00 C 853.57 28.95 826.90 29.07 800.23 28.94 C 800.23 38.99 800.23 49.04 800.23 59.09 C 801.87 59.02 803.52 58.97 805.18 58.91 C 805.16 52.94 805.18 46.97 805.17 41.00 C 831.84 40.97 858.51 41.09 885.18 40.94 C 885.17 32.99 885.16 25.04 885.18 17.09 C 883.52 17.03 881.87 16.98 880.23 16.91 M 848.19 73.04 C 848.19 73.51 848.19 74.47 848.19 74.94 C 850.50 74.99 852.83 75.02 855.17 75.09 C 855.14 84.37 855.14 93.64 855.17 102.92 C 839.16 103.10 823.16 102.93 807.15 103.00 C 807.15 108.34 807.15 113.67 807.15 119.01 C 807.70 118.99 808.79 118.97 809.33 118.95 C 809.32 114.30 809.33 109.65 809.32 105.00 C 825.33 105.00 841.33 105.03 857.33 104.98 C 857.32 94.33 857.32 83.67 857.33 73.02 C 854.28 73.00 851.23 72.99 848.19 73.04 M 848.23 76.91 C 848.23 80.94 848.23 84.97 848.23 89.00 C 832.23 88.95 816.23 89.07 800.23 88.94 C 800.23 98.99 800.23 109.04 800.23 119.09 C 801.87 119.02 803.52 118.97 805.18 118.91 C 805.16 112.94 805.18 106.97 805.17 101.00 C 821.17 100.97 837.18 101.09 853.18 100.94 C 853.17 92.99 853.16 85.04 853.18 77.09 C 851.52 77.03 849.87 76.98 848.23 76.91 M 880.19 133.04 C 880.19 133.52 880.19 134.47 880.19 134.94 C 882.51 134.99 884.83 135.02 887.17 135.09 C 887.14 144.37 887.14 153.64 887.17 162.92 C 850.55 163.10 813.94 162.94 777.32 163.00 C 777.33 158.35 777.32 153.70 777.33 149.05 C 776.79 149.03 775.70 149.01 775.15 148.99 C 775.15 154.33 775.15 159.66 775.15 165.00 C 813.21 165.00 851.27 165.03 889.33 164.98 C 889.32 154.32 889.32 143.67 889.33 133.02 C 886.28 133.00 883.23 132.98 880.19 133.04 M 880.23 136.91 C 880.23 140.94 880.23 144.97 880.23 149.00 C 846.56 149.00 812.90 148.98 779.23 149.01 C 779.23 153.00 779.23 157.00 779.23 160.99 C 814.55 160.98 849.87 161.09 885.18 160.94 C 885.17 152.99 885.16 145.04 885.18 137.09 C 883.52 137.03 881.87 136.97 880.23 136.91 Z" />
<path fill="#000000" opacity="1.00" d=" M 960.17 0.00 L 1088.23 0.00 C 1088.23 3.68 1088.23 7.37 1088.23 11.05 C 1091.89 10.98 1095.56 11.00 1099.23 11.00 C 1099.23 23.00 1099.23 35.00 1099.23 47.00 C 1083.23 46.99 1067.23 46.98 1051.23 47.01 C 1051.24 87.00 1051.23 127.00 1051.23 167.00 L 1013.17 167.00 C 1013.17 161.02 1013.16 155.04 1013.18 149.07 C 1011.49 149.03 1009.82 149.00 1008.16 148.97 C 1008.19 115.00 1008.16 81.02 1008.18 47.05 C 993.84 46.93 979.50 47.02 965.17 47.00 C 965.17 41.02 965.16 35.04 965.18 29.07 C 963.49 29.03 961.82 29.00 960.16 28.97 C 960.18 19.31 960.16 9.66 960.17 0.00 M 1088.19 13.04 C 1088.19 13.52 1088.19 14.47 1088.19 14.95 C 1090.50 14.99 1092.83 15.02 1095.17 15.09 C 1095.14 24.37 1095.14 33.64 1095.17 42.92 C 1079.16 43.10 1063.15 42.93 1047.15 43.00 C 1047.17 82.98 1047.14 122.95 1047.17 162.92 C 1037.22 163.09 1027.27 162.94 1017.32 163.00 C 1017.33 158.35 1017.31 153.70 1017.33 149.05 C 1016.79 149.03 1015.70 149.01 1015.15 148.99 C 1015.15 154.33 1015.15 159.66 1015.15 165.00 C 1026.54 165.00 1037.94 165.03 1049.33 164.98 C 1049.32 124.99 1049.33 84.99 1049.32 45.00 C 1065.32 45.00 1081.33 45.03 1097.33 44.98 C 1097.32 34.33 1097.32 23.67 1097.33 13.02 C 1094.28 13.00 1091.23 12.99 1088.19 13.04 M 1088.23 16.91 C 1088.23 20.94 1088.23 24.97 1088.23 29.00 C 1072.23 28.95 1056.23 29.07 1040.23 28.94 C 1040.24 68.96 1040.23 108.98 1040.23 149.00 C 1033.23 149.02 1026.23 148.95 1019.23 149.01 C 1019.23 153.00 1019.23 157.00 1019.23 160.99 C 1027.88 160.99 1036.53 161.08 1045.18 160.94 C 1045.16 120.96 1045.18 80.98 1045.17 41.00 C 1061.17 40.97 1077.18 41.09 1093.18 40.94 C 1093.16 32.99 1093.16 25.04 1093.18 17.09 C 1091.51 17.03 1089.87 16.98 1088.23 16.91 M 967.15 28.99 C 967.15 34.33 967.15 39.66 967.15 45.00 C 980.83 44.98 994.51 45.08 1008.19 44.94 C 1008.19 44.47 1008.19 43.53 1008.19 43.06 C 995.23 42.92 982.28 43.02 969.32 43.00 C 969.33 38.35 969.31 33.70 969.33 29.05 C 968.79 29.03 967.70 29.01 967.15 28.99 M 971.23 29.01 C 971.23 33.00 971.23 37.00 971.23 40.99 C 983.54 40.99 995.86 41.07 1008.18 40.94 C 1008.16 36.98 1008.16 33.02 1008.18 29.06 C 995.86 28.93 983.54 29.01 971.23 29.01 Z" />
<path fill="#000000" opacity="1.00" d=" M 1184.17 0.00 L 1280.23 0.00 C 1280.23 3.68 1280.23 7.37 1280.23 11.05 C 1283.89 10.98 1287.56 11.00 1291.23 11.00 C 1291.23 17.00 1291.23 23.00 1291.23 28.99 C 1292.88 29.00 1294.54 29.00 1296.23 29.00 C 1296.23 33.02 1296.23 37.03 1296.23 41.05 C 1299.89 40.98 1303.56 41.00 1307.23 41.00 C 1307.23 73.00 1307.23 105.00 1307.23 137.00 C 1301.89 137.01 1296.56 136.96 1291.23 137.01 C 1291.24 147.00 1291.23 157.00 1291.23 167.00 L 1189.17 167.00 C 1189.17 161.02 1189.16 155.04 1189.18 149.07 C 1187.49 149.03 1185.82 149.00 1184.16 148.97 C 1184.17 144.99 1184.16 141.02 1184.18 137.05 C 1180.50 136.99 1176.83 137.00 1173.17 137.00 C 1173.17 131.02 1173.16 125.04 1173.18 119.07 C 1171.49 119.03 1169.82 119.00 1168.16 118.97 C 1168.19 88.98 1168.17 58.99 1168.17 29.00 C 1173.50 28.99 1178.84 29.03 1184.18 28.95 C 1184.16 19.30 1184.17 9.65 1184.17 0.00 M 1280.19 13.04 C 1280.19 13.51 1280.19 14.47 1280.18 14.94 C 1282.50 14.99 1284.83 15.02 1287.17 15.09 C 1287.14 19.73 1287.15 24.37 1287.15 29.01 C 1287.70 28.99 1288.79 28.97 1289.33 28.95 C 1289.32 23.64 1289.32 18.33 1289.33 13.02 C 1286.28 13.00 1283.23 12.99 1280.19 13.04 M 1280.23 16.91 C 1280.23 20.97 1280.23 25.03 1280.23 29.09 C 1281.87 29.02 1283.51 28.97 1285.18 28.91 C 1285.16 24.97 1285.16 21.03 1285.18 17.09 C 1283.51 17.03 1281.87 16.98 1280.23 16.91 M 1200.23 28.94 C 1200.24 58.99 1200.24 89.04 1200.23 119.09 C 1201.87 119.02 1203.51 118.97 1205.18 118.91 C 1205.16 92.94 1205.18 66.97 1205.17 41.00 C 1224.84 40.97 1244.51 41.08 1264.18 40.94 C 1264.16 36.98 1264.16 33.02 1264.18 29.06 C 1242.86 28.88 1221.55 29.11 1200.23 28.94 M 1207.15 43.00 C 1207.15 68.34 1207.16 93.67 1207.15 119.01 C 1207.70 118.99 1208.79 118.97 1209.33 118.95 C 1209.31 94.30 1209.33 69.65 1209.32 45.00 C 1227.61 44.98 1245.90 45.08 1264.19 44.94 C 1264.19 44.47 1264.19 43.53 1264.19 43.06 C 1245.18 42.92 1226.16 43.02 1207.15 43.00 M 1296.19 43.04 C 1296.19 43.52 1296.19 44.47 1296.18 44.94 C 1298.50 44.99 1300.83 45.02 1303.17 45.09 C 1303.14 74.37 1303.15 103.64 1303.17 132.92 C 1297.82 133.05 1292.48 132.97 1287.15 133.00 C 1287.16 142.98 1287.13 152.95 1287.17 162.92 C 1255.89 163.10 1224.60 162.94 1193.32 163.00 C 1193.33 158.35 1193.31 153.70 1193.33 149.05 C 1192.79 149.03 1191.70 149.01 1191.15 148.99 C 1191.15 154.33 1191.15 159.66 1191.15 165.00 C 1223.88 165.00 1256.60 165.03 1289.33 164.98 C 1289.32 154.99 1289.33 144.99 1289.32 135.00 C 1294.65 135.02 1299.99 135.02 1305.33 134.98 C 1305.32 104.33 1305.32 73.67 1305.33 43.02 C 1302.27 43.00 1299.23 42.98 1296.19 43.04 M 1211.23 47.01 C 1211.24 71.00 1211.24 95.00 1211.23 118.99 C 1228.88 118.99 1246.53 119.07 1264.18 118.94 C 1264.17 94.98 1264.17 71.02 1264.18 47.06 C 1246.53 46.93 1228.88 47.01 1211.23 47.01 M 1296.23 46.91 C 1296.24 70.94 1296.23 94.97 1296.23 119.00 C 1290.89 118.98 1285.56 119.06 1280.23 118.94 C 1280.24 128.96 1280.23 138.98 1280.23 149.00 C 1251.90 149.00 1223.56 148.98 1195.23 149.01 C 1195.23 153.00 1195.23 157.00 1195.23 160.99 C 1225.21 160.98 1255.20 161.09 1285.18 160.94 C 1285.16 150.96 1285.18 140.98 1285.17 131.00 C 1290.50 130.96 1295.84 131.10 1301.18 130.94 C 1301.17 102.99 1301.16 75.04 1301.18 47.09 C 1299.51 47.03 1297.87 46.98 1296.23 46.91 M 1175.15 118.99 C 1175.15 124.33 1175.15 129.66 1175.15 135.00 C 1178.16 135.00 1181.17 135.01 1184.19 134.94 C 1184.19 134.47 1184.19 133.53 1184.19 133.06 C 1181.89 133.01 1179.60 132.99 1177.32 132.98 C 1177.33 128.34 1177.31 123.69 1177.33 119.05 C 1176.79 119.03 1175.70 119.01 1175.15 118.99 M 1179.23 118.98 C 1179.23 122.99 1179.23 127.01 1179.23 131.02 C 1180.87 131.00 1182.51 130.97 1184.18 130.93 C 1184.16 126.98 1184.16 123.02 1184.18 119.07 C 1182.51 119.02 1180.87 119.00 1179.23 118.98 Z" />
<path fill="#000000" opacity="1.00" d=" M 1375.85 0.00 L 1424.15 0.00 C 1424.15 3.68 1424.15 7.36 1424.15 11.04 C 1427.81 10.98 1431.48 10.98 1435.16 11.07 C 1435.14 17.03 1435.17 23.00 1435.14 28.96 C 1436.80 29.00 1438.47 29.04 1440.16 29.09 C 1440.14 33.07 1440.15 37.05 1440.15 41.04 C 1443.81 40.98 1447.48 40.98 1451.16 41.07 C 1451.14 47.03 1451.17 53.00 1451.14 58.96 C 1452.80 59.00 1454.47 59.04 1456.16 59.09 C 1456.14 63.07 1456.15 67.05 1456.15 71.04 C 1459.81 70.98 1463.48 70.98 1467.16 71.07 C 1467.14 77.03 1467.17 82.99 1467.14 88.96 C 1468.80 89.00 1470.47 89.04 1472.16 89.09 C 1472.14 93.07 1472.15 97.05 1472.15 101.04 C 1475.81 100.98 1479.48 100.98 1483.16 101.07 C 1483.14 107.04 1483.16 113.01 1483.15 118.98 C 1484.69 119.00 1486.26 119.02 1487.85 119.05 C 1487.84 79.37 1487.85 39.68 1487.85 0.00 L 1520.15 0.00 C 1520.15 3.68 1520.15 7.36 1520.15 11.04 C 1523.76 10.98 1527.38 10.98 1531.00 11.06 L 1531.00 167.00 L 1460.85 167.00 C 1460.85 161.01 1460.83 155.03 1460.86 149.04 C 1459.17 149.00 1457.49 148.96 1455.84 148.91 C 1455.84 144.93 1455.84 140.94 1455.85 136.96 C 1452.17 137.02 1448.50 137.02 1444.84 136.93 C 1444.85 130.97 1444.82 125.00 1444.86 119.04 C 1443.17 119.00 1441.49 118.96 1439.84 118.91 C 1439.84 114.93 1439.84 110.94 1439.85 106.96 C 1436.17 107.02 1432.50 107.02 1428.84 106.93 C 1428.85 100.97 1428.82 95.00 1428.86 89.04 C 1427.17 89.00 1425.49 88.96 1423.84 88.91 C 1423.84 84.92 1423.84 80.93 1423.85 76.95 C 1422.26 76.98 1420.69 77.00 1419.15 77.02 C 1419.17 107.02 1419.15 137.01 1419.15 167.00 L 1380.85 167.00 C 1380.85 161.01 1380.83 155.03 1380.86 149.04 C 1379.17 149.00 1377.49 148.96 1375.84 148.91 C 1375.86 99.27 1375.84 49.64 1375.85 0.00 M 1424.11 13.03 C 1424.12 13.52 1424.12 14.48 1424.12 14.97 C 1426.34 14.99 1428.58 15.00 1430.83 15.01 C 1430.81 19.65 1430.83 24.29 1430.82 28.93 C 1431.41 28.93 1432.59 28.93 1433.18 28.93 C 1433.16 23.64 1433.16 18.35 1433.18 13.06 C 1430.15 12.99 1427.13 12.99 1424.11 13.03 M 1520.11 13.03 C 1520.11 13.52 1520.12 14.48 1520.12 14.97 C 1522.34 14.99 1524.58 15.00 1526.83 15.01 C 1526.82 64.34 1526.83 113.67 1526.83 163.01 C 1506.27 162.98 1485.72 162.98 1465.17 163.00 C 1465.17 158.36 1465.16 153.72 1465.18 149.07 C 1464.59 149.07 1463.41 149.07 1462.82 149.07 C 1462.83 154.36 1462.83 159.65 1462.82 164.94 C 1484.94 165.05 1507.06 165.05 1529.18 164.94 C 1529.17 114.31 1529.17 63.68 1529.18 13.06 C 1526.15 12.99 1523.13 12.99 1520.11 13.03 M 1424.15 16.94 C 1424.15 20.98 1424.15 25.02 1424.15 29.06 C 1425.70 29.02 1427.27 29.00 1428.85 28.98 C 1428.83 24.99 1428.83 21.01 1428.85 17.02 C 1427.27 17.00 1425.70 16.98 1424.15 16.94 M 1520.15 16.94 C 1520.16 60.93 1520.14 104.92 1520.17 148.91 C 1502.49 149.11 1484.82 148.91 1467.15 149.01 C 1467.15 153.00 1467.15 157.00 1467.15 160.99 C 1486.38 161.02 1505.62 161.02 1524.85 160.99 C 1524.84 113.00 1524.84 65.01 1524.85 17.02 C 1523.27 17.00 1521.70 16.98 1520.15 16.94 M 1440.11 43.03 C 1440.12 43.52 1440.12 44.48 1440.12 44.97 C 1442.34 44.99 1444.58 45.00 1446.83 45.01 C 1446.81 49.65 1446.83 54.29 1446.82 58.93 C 1447.41 58.93 1448.59 58.93 1449.18 58.93 C 1449.16 53.64 1449.16 48.35 1449.18 43.06 C 1446.15 42.99 1443.13 42.99 1440.11 43.03 M 1440.15 46.94 C 1440.15 50.98 1440.15 55.02 1440.15 59.06 C 1441.70 59.02 1443.27 59.00 1444.85 58.98 C 1444.83 54.99 1444.83 51.01 1444.85 47.02 C 1443.27 47.00 1441.70 46.98 1440.15 46.94 M 1408.15 58.95 C 1408.16 88.94 1408.14 118.93 1408.17 148.91 C 1401.16 149.13 1394.15 148.89 1387.15 149.01 C 1387.15 153.00 1387.15 157.00 1387.15 160.99 C 1395.71 161.02 1404.28 161.02 1412.85 160.99 C 1412.83 131.02 1412.86 101.05 1412.83 71.09 C 1416.49 70.96 1420.17 70.97 1423.85 71.05 C 1423.84 67.02 1423.84 62.99 1423.85 58.95 C 1418.61 59.03 1413.38 59.03 1408.15 58.95 M 1414.82 73.06 C 1414.84 103.04 1414.82 133.02 1414.83 163.01 C 1404.94 162.98 1395.05 162.98 1385.17 163.01 C 1385.17 158.36 1385.16 153.72 1385.18 149.07 C 1384.59 149.07 1383.41 149.07 1382.82 149.07 C 1382.83 154.36 1382.83 159.65 1382.82 164.94 C 1394.27 165.05 1405.73 165.06 1417.18 164.94 C 1417.16 134.96 1417.18 104.99 1417.17 75.01 C 1419.39 75.00 1421.63 74.99 1423.88 74.97 C 1423.88 74.48 1423.88 73.52 1423.89 73.03 C 1420.85 72.99 1417.83 72.98 1414.82 73.06 M 1456.11 73.03 C 1456.12 73.52 1456.12 74.48 1456.12 74.97 C 1458.34 74.99 1460.58 75.00 1462.83 75.01 C 1462.81 79.65 1462.83 84.29 1462.82 88.93 C 1463.41 88.93 1464.59 88.93 1465.18 88.93 C 1465.16 83.64 1465.16 78.35 1465.18 73.06 C 1462.15 72.98 1459.13 72.99 1456.11 73.03 M 1456.15 76.94 C 1456.15 80.98 1456.15 85.02 1456.15 89.06 C 1457.70 89.02 1459.27 89.00 1460.85 88.98 C 1460.83 84.99 1460.83 81.01 1460.85 77.02 C 1459.27 77.00 1457.70 76.98 1456.15 76.94 M 1430.82 89.07 C 1430.83 94.36 1430.83 99.65 1430.82 104.94 C 1433.83 105.01 1436.85 105.01 1439.88 104.97 C 1439.88 104.48 1439.89 103.52 1439.89 103.04 C 1437.63 103.01 1435.39 103.00 1433.17 102.99 C 1433.17 98.35 1433.16 93.71 1433.18 89.07 C 1432.59 89.07 1431.41 89.07 1430.82 89.07 M 1435.15 89.02 C 1435.15 93.01 1435.15 96.99 1435.15 100.98 C 1436.69 101.00 1438.26 101.02 1439.85 101.06 C 1439.84 97.02 1439.84 92.98 1439.85 88.94 C 1438.26 88.98 1436.69 89.00 1435.15 89.02 M 1472.12 103.03 C 1472.12 103.52 1472.12 104.48 1472.12 104.97 C 1474.34 104.99 1476.58 105.00 1478.83 105.01 C 1478.81 109.65 1478.83 114.29 1478.82 118.93 C 1479.41 118.93 1480.59 118.93 1481.18 118.93 C 1481.16 113.64 1481.16 108.35 1481.18 103.06 C 1478.15 102.98 1475.13 102.99 1472.12 103.03 M 1472.15 106.94 C 1472.15 110.98 1472.15 115.02 1472.15 119.06 C 1473.70 119.02 1475.27 119.00 1476.85 118.98 C 1476.83 114.99 1476.83 111.01 1476.85 107.02 C 1475.27 107.00 1473.70 106.98 1472.15 106.94 M 1446.82 119.07 C 1446.83 124.36 1446.83 129.65 1446.82 134.94 C 1449.83 135.01 1452.85 135.01 1455.88 134.97 C 1455.88 134.48 1455.88 133.52 1455.88 133.03 C 1453.63 133.01 1451.39 133.00 1449.17 132.99 C 1449.17 128.35 1449.16 123.71 1449.18 119.07 C 1448.59 119.07 1447.41 119.07 1446.82 119.07 M 1451.15 119.02 C 1451.15 123.01 1451.15 126.99 1451.15 130.98 C 1452.69 131.00 1454.26 131.02 1455.85 131.06 C 1455.84 127.02 1455.84 122.98 1455.85 118.94 C 1454.26 118.98 1452.69 119.00 1451.15 119.02 Z" />
</g>
<g id="#ffffffff">
<path fill="#ffffff" opacity="1.00" d=" M 112.19 13.04 C 115.24 12.99 118.28 13.00 121.33 13.02 C 121.32 23.67 121.32 34.33 121.33 44.98 C 94.66 45.04 67.99 45.00 41.32 45.00 C 41.33 49.65 41.32 54.30 41.33 58.95 C 40.79 58.97 39.70 58.99 39.15 59.01 C 39.16 53.67 39.16 48.34 39.15 43.00 C 65.82 42.93 92.50 43.10 119.17 42.92 C 119.15 33.64 119.15 24.37 119.17 15.09 C 116.84 15.02 114.51 14.99 112.18 14.94 C 112.19 14.47 112.19 13.51 112.19 13.04 Z" />
<path fill="#ffffff" opacity="1.00" d=" M 224.19 13.04 C 227.23 12.99 230.28 13.00 233.33 13.02 C 233.33 28.33 233.32 43.64 233.33 58.95 C 232.79 58.97 231.70 58.99 231.15 59.01 C 231.17 44.37 231.13 29.73 231.17 15.09 C 228.84 15.02 226.52 14.99 224.19 14.95 C 224.19 14.47 224.19 13.52 224.19 13.04 Z" />
<path fill="#ffffff" opacity="1.00" d=" M 304.19 13.04 C 307.23 12.99 310.28 13.00 313.33 13.02 C 313.32 23.67 313.32 34.33 313.33 44.98 C 307.99 45.02 302.66 45.02 297.32 45.00 C 297.33 54.99 297.32 64.99 297.33 74.98 C 291.99 75.02 286.66 75.02 281.32 75.00 C 281.33 79.65 281.32 84.30 281.33 88.95 C 280.79 88.97 279.70 88.99 279.15 89.01 C 279.16 83.67 279.15 78.34 279.15 73.00 C 284.49 72.97 289.83 73.05 295.17 72.92 C 295.14 62.95 295.16 52.98 295.15 43.00 C 300.49 42.97 305.83 43.05 311.17 42.92 C 311.15 33.64 311.14 24.37 311.17 15.09 C 308.84 15.02 306.51 14.99 304.19 14.95 C 304.19 14.47 304.19 13.52 304.19 13.04 Z" />
<path fill="#ffffff" opacity="1.00" d=" M 496.19 13.04 C 499.23 12.99 502.28 13.00 505.33 13.02 C 505.32 23.67 505.32 34.33 505.33 44.98 C 478.66 45.04 451.99 45.00 425.32 45.00 C 425.33 49.65 425.32 54.30 425.33 58.95 C 424.79 58.97 423.70 58.99 423.15 59.01 C 423.16 53.67 423.15 48.34 423.15 43.00 C 449.82 42.93 476.50 43.10 503.17 42.92 C 503.15 33.64 503.14 24.37 503.17 15.09 C 500.84 15.02 498.51 14.99 496.19 14.95 C 496.19 14.47 496.19 13.52 496.19 13.04 Z" />
<path fill="#ffffff" opacity="1.00" d=" M 608.19 13.04 C 611.23 12.99 614.28 13.00 617.33 13.02 C 617.33 48.33 617.32 83.64 617.33 118.95 C 616.79 118.97 615.70 118.99 615.15 119.01 C 615.17 84.37 615.13 49.73 615.17 15.09 C 612.83 15.02 610.51 14.99 608.19 14.94 C 608.19 14.47 608.19 13.52 608.19 13.04 Z" />
<path fill="#ffffff" opacity="1.00" d=" M 880.19 13.04 C 883.23 12.99 886.28 13.00 889.33 13.02 C 889.32 23.67 889.32 34.33 889.33 44.98 C 862.66 45.04 835.99 45.00 809.32 45.00 C 809.33 49.65 809.32 54.30 809.33 58.95 C 808.79 58.97 807.70 58.99 807.15 59.01 C 807.15 53.67 807.15 48.34 807.15 43.00 C 833.82 42.93 860.50 43.10 887.17 42.92 C 887.14 33.64 887.14 24.37 887.17 15.09 C 884.83 15.02 882.51 14.99 880.19 14.95 C 880.19 14.47 880.19 13.52 880.19 13.04 Z" />
<path fill="#ffffff" opacity="1.00" d=" M 1088.19 13.04 C 1091.23 12.99 1094.28 13.00 1097.33 13.02 C 1097.32 23.67 1097.32 34.33 1097.33 44.98 C 1081.33 45.03 1065.32 45.00 1049.32 45.00 C 1049.33 84.99 1049.32 124.99 1049.33 164.98 C 1037.94 165.03 1026.54 165.00 1015.15 165.00 C 1015.15 159.66 1015.15 154.33 1015.15 148.99 C 1015.70 149.01 1016.79 149.03 1017.33 149.05 C 1017.31 153.70 1017.33 158.35 1017.32 163.00 C 1027.27 162.94 1037.22 163.09 1047.17 162.92 C 1047.14 122.95 1047.17 82.98 1047.15 43.00 C 1063.15 42.93 1079.16 43.10 1095.17 42.92 C 1095.14 33.64 1095.14 24.37 1095.17 15.09 C 1092.83 15.02 1090.50 14.99 1088.19 14.95 C 1088.19 14.47 1088.19 13.52 1088.19 13.04 Z" />
<path fill="#ffffff" opacity="1.00" d=" M 1280.19 13.04 C 1283.23 12.99 1286.28 13.00 1289.33 13.02 C 1289.32 18.33 1289.32 23.64 1289.33 28.95 C 1288.79 28.97 1287.70 28.99 1287.15 29.01 C 1287.15 24.37 1287.14 19.73 1287.17 15.09 C 1284.83 15.02 1282.50 14.99 1280.18 14.94 C 1280.19 14.47 1280.19 13.51 1280.19 13.04 Z" />
<path fill="#ffffff" opacity="1.00" d=" M 1424.11 13.03 C 1427.13 12.99 1430.15 12.99 1433.18 13.06 C 1433.16 18.35 1433.16 23.64 1433.18 28.93 C 1432.59 28.93 1431.41 28.93 1430.82 28.93 C 1430.83 24.29 1430.81 19.65 1430.83 15.01 C 1428.58 15.00 1426.34 14.99 1424.12 14.97 C 1424.12 14.48 1424.12 13.52 1424.11 13.03 Z" />
<path fill="#ffffff" opacity="1.00" d=" M 1520.11 13.03 C 1523.13 12.99 1526.15 12.99 1529.18 13.06 C 1529.17 63.68 1529.17 114.31 1529.18 164.94 C 1507.06 165.05 1484.94 165.05 1462.82 164.94 C 1462.83 159.65 1462.83 154.36 1462.82 149.07 C 1463.41 149.07 1464.59 149.07 1465.18 149.07 C 1465.16 153.72 1465.17 158.36 1465.17 163.00 C 1485.72 162.98 1506.27 162.98 1526.83 163.01 C 1526.83 113.67 1526.82 64.34 1526.83 15.01 C 1524.58 15.00 1522.34 14.99 1520.12 14.97 C 1520.12 14.48 1520.11 13.52 1520.11 13.03 Z" />
<path fill="#ffffff" opacity="1.00" d=" M 112.23 16.91 C 113.88 16.98 115.53 17.03 117.18 17.09 C 117.16 25.04 117.17 32.99 117.18 40.94 C 90.51 41.09 63.84 40.96 37.17 41.00 C 37.18 46.97 37.16 52.94 37.18 58.91 C 35.53 58.97 33.88 59.02 32.23 59.09 C 32.24 49.04 32.24 38.99 32.23 28.94 C 58.90 29.07 85.57 28.95 112.23 29.00 C 112.23 24.97 112.24 20.94 112.23 16.91 Z" />
<path fill="#ffffff" opacity="1.00" d=" M 224.23 16.91 C 225.88 16.98 227.53 17.03 229.18 17.09 C 229.17 31.03 229.17 44.97 229.18 58.91 C 227.53 58.97 225.88 59.02 224.23 59.09 C 224.24 45.03 224.24 30.97 224.23 16.91 Z" />
<path fill="#ffffff" opacity="1.00" d=" M 304.23 16.91 C 305.88 16.98 307.53 17.03 309.18 17.09 C 309.16 25.04 309.17 32.99 309.18 40.94 C 303.84 41.10 298.51 40.96 293.17 41.00 C 293.18 50.98 293.16 60.96 293.18 70.94 C 287.84 71.10 282.51 70.96 277.17 71.00 C 277.18 76.97 277.16 82.94 277.18 88.91 C 275.53 88.97 273.88 89.02 272.23 89.09 C 272.24 79.04 272.24 68.99 272.23 58.94 C 277.56 59.06 282.90 58.98 288.23 59.00 C 288.23 48.98 288.24 38.96 288.23 28.94 C 293.56 29.06 298.90 28.98 304.23 29.00 C 304.23 24.97 304.24 20.94 304.23 16.91 Z" />
<path fill="#ffffff" opacity="1.00" d=" M 496.23 16.91 C 497.88 16.98 499.52 17.03 501.18 17.09 C 501.16 25.04 501.17 32.99 501.18 40.94 C 474.51 41.09 447.84 40.97 421.17 41.00 C 421.18 46.97 421.16 52.94 421.18 58.91 C 419.53 58.97 417.88 59.02 416.23 59.09 C 416.24 49.04 416.24 38.99 416.23 28.94 C 442.90 29.07 469.57 28.95 496.23 29.00 C 496.23 24.97 496.24 20.94 496.23 16.91 Z" />
<path fill="#ffffff" opacity="1.00" d=" M 608.23 16.91 C 609.87 16.98 611.52 17.03 613.18 17.09 C 613.17 51.03 613.17 84.97 613.18 118.91 C 611.52 118.97 609.87 119.02 608.23 119.09 C 608.24 85.03 608.24 50.97 608.23 16.91 Z" />
<path fill="#ffffff" opacity="1.00" d=" M 880.23 16.91 C 881.87 16.98 883.52 17.03 885.18 17.09 C 885.16 25.04 885.17 32.99 885.18 40.94 C 858.51 41.09 831.84 40.97 805.17 41.00 C 805.18 46.97 805.16 52.94 805.18 58.91 C 803.52 58.97 801.87 59.02 800.23 59.09 C 800.23 49.04 800.23 38.99 800.23 28.94 C 826.90 29.07 853.57 28.95 880.23 29.00 C 880.23 24.97 880.23 20.94 880.23 16.91 Z" />
<path fill="#ffffff" opacity="1.00" d=" M 1088.23 16.91 C 1089.87 16.98 1091.51 17.03 1093.18 17.09 C 1093.16 25.04 1093.16 32.99 1093.18 40.94 C 1077.18 41.09 1061.17 40.97 1045.17 41.00 C 1045.18 80.98 1045.16 120.96 1045.18 160.94 C 1036.53 161.08 1027.88 160.99 1019.23 160.99 C 1019.23 157.00 1019.23 153.00 1019.23 149.01 C 1026.23 148.95 1033.23 149.02 1040.23 149.00 C 1040.23 108.98 1040.24 68.96 1040.23 28.94 C 1056.23 29.07 1072.23 28.95 1088.23 29.00 C 1088.23 24.97 1088.23 20.94 1088.23 16.91 Z" />
<path fill="#ffffff" opacity="1.00" d=" M 1280.23 16.91 C 1281.87 16.98 1283.51 17.03 1285.18 17.09 C 1285.16 21.03 1285.16 24.97 1285.18 28.91 C 1283.51 28.97 1281.87 29.02 1280.23 29.09 C 1280.23 25.03 1280.23 20.97 1280.23 16.91 Z" />
<path fill="#ffffff" opacity="1.00" d=" M 1424.15 16.94 C 1425.70 16.98 1427.27 17.00 1428.85 17.02 C 1428.83 21.01 1428.83 24.99 1428.85 28.98 C 1427.27 29.00 1425.70 29.02 1424.15 29.06 C 1424.15 25.02 1424.15 20.98 1424.15 16.94 Z" />
<path fill="#ffffff" opacity="1.00" d=" M 1520.15 16.94 C 1521.70 16.98 1523.27 17.00 1524.85 17.02 C 1524.84 65.01 1524.84 113.00 1524.85 160.99 C 1505.62 161.02 1486.38 161.02 1467.15 160.99 C 1467.15 157.00 1467.15 153.00 1467.15 149.01 C 1484.82 148.91 1502.49 149.11 1520.17 148.91 C 1520.14 104.92 1520.16 60.93 1520.15 16.94 Z" />
<path fill="#ffffff" opacity="1.00" d=" M 967.15 28.99 C 967.70 29.01 968.79 29.03 969.33 29.05 C 969.31 33.70 969.33 38.35 969.32 43.00 C 982.28 43.02 995.23 42.92 1008.19 43.06 C 1008.19 43.53 1008.19 44.47 1008.19 44.94 C 994.51 45.08 980.83 44.98 967.15 45.00 C 967.15 39.66 967.15 34.33 967.15 28.99 Z" />
<path fill="#ffffff" opacity="1.00" d=" M 971.23 29.01 C 983.54 29.01 995.86 28.93 1008.18 29.06 C 1008.16 33.02 1008.16 36.98 1008.18 40.94 C 995.86 41.07 983.54 40.99 971.23 40.99 C 971.23 37.00 971.23 33.00 971.23 29.01 Z" />
<path fill="#ffffff" opacity="1.00" d=" M 1200.23 28.94 C 1221.55 29.11 1242.86 28.88 1264.18 29.06 C 1264.16 33.02 1264.16 36.98 1264.18 40.94 C 1244.51 41.08 1224.84 40.97 1205.17 41.00 C 1205.18 66.97 1205.16 92.94 1205.18 118.91 C 1203.51 118.97 1201.87 119.02 1200.23 119.09 C 1200.24 89.04 1200.24 58.99 1200.23 28.94 Z" />
<path fill="#ffffff" opacity="1.00" d=" M 1207.15 43.00 C 1226.16 43.02 1245.18 42.92 1264.19 43.06 C 1264.19 43.53 1264.19 44.47 1264.19 44.94 C 1245.90 45.08 1227.61 44.98 1209.32 45.00 C 1209.33 69.65 1209.31 94.30 1209.33 118.95 C 1208.79 118.97 1207.70 118.99 1207.15 119.01 C 1207.16 93.67 1207.15 68.34 1207.15 43.00 Z" />
<path fill="#ffffff" opacity="1.00" d=" M 1296.19 43.04 C 1299.23 42.98 1302.27 43.00 1305.33 43.02 C 1305.32 73.67 1305.32 104.33 1305.33 134.98 C 1299.99 135.02 1294.65 135.02 1289.32 135.00 C 1289.33 144.99 1289.32 154.99 1289.33 164.98 C 1256.60 165.03 1223.88 165.00 1191.15 165.00 C 1191.15 159.66 1191.15 154.33 1191.15 148.99 C 1191.70 149.01 1192.79 149.03 1193.33 149.05 C 1193.31 153.70 1193.33 158.35 1193.32 163.00 C 1224.60 162.94 1255.89 163.10 1287.17 162.92 C 1287.13 152.95 1287.16 142.98 1287.15 133.00 C 1292.48 132.97 1297.82 133.05 1303.17 132.92 C 1303.15 103.64 1303.14 74.37 1303.17 45.09 C 1300.83 45.02 1298.50 44.99 1296.18 44.94 C 1296.19 44.47 1296.19 43.52 1296.19 43.04 Z" />
<path fill="#ffffff" opacity="1.00" d=" M 1440.11 43.03 C 1443.13 42.99 1446.15 42.99 1449.18 43.06 C 1449.16 48.35 1449.16 53.64 1449.18 58.93 C 1448.59 58.93 1447.41 58.93 1446.82 58.93 C 1446.83 54.29 1446.81 49.65 1446.83 45.01 C 1444.58 45.00 1442.34 44.99 1440.12 44.97 C 1440.12 44.48 1440.12 43.52 1440.11 43.03 Z" />
<path fill="#ffffff" opacity="1.00" d=" M 1296.23 46.91 C 1297.87 46.98 1299.51 47.03 1301.18 47.09 C 1301.16 75.04 1301.17 102.99 1301.18 130.94 C 1295.84 131.10 1290.50 130.96 1285.17 131.00 C 1285.18 140.98 1285.16 150.96 1285.18 160.94 C 1255.20 161.09 1225.21 160.98 1195.23 160.99 C 1195.23 157.00 1195.23 153.00 1195.23 149.01 C 1223.56 148.98 1251.90 149.00 1280.23 149.00 C 1280.23 138.98 1280.24 128.96 1280.23 118.94 C 1285.56 119.06 1290.89 118.98 1296.23 119.00 C 1296.23 94.97 1296.24 70.94 1296.23 46.91 Z" />
<path fill="#ffffff" opacity="1.00" d=" M 1440.15 46.94 C 1441.70 46.98 1443.27 47.00 1444.85 47.02 C 1444.83 51.01 1444.83 54.99 1444.85 58.98 C 1443.27 59.00 1441.70 59.02 1440.15 59.06 C 1440.15 55.02 1440.15 50.98 1440.15 46.94 Z" />
<path fill="#ffffff" opacity="1.00" d=" M 1408.15 58.95 C 1413.38 59.03 1418.61 59.03 1423.85 58.95 C 1423.84 62.99 1423.84 67.02 1423.85 71.05 C 1420.17 70.97 1416.49 70.96 1412.83 71.09 C 1412.86 101.05 1412.83 131.02 1412.85 160.99 C 1404.28 161.02 1395.71 161.02 1387.15 160.99 C 1387.15 157.00 1387.15 153.00 1387.15 149.01 C 1394.15 148.89 1401.16 149.13 1408.17 148.91 C 1408.14 118.93 1408.16 88.94 1408.15 58.95 Z" />
<path fill="#ffffff" opacity="1.00" d=" M 112.19 73.04 C 115.24 72.99 118.28 73.00 121.33 73.02 C 121.32 103.67 121.32 134.33 121.33 164.98 C 83.27 165.03 45.21 165.00 7.15 165.00 C 7.16 159.66 7.16 154.33 7.15 148.99 C 7.70 149.01 8.79 149.03 9.33 149.05 C 9.32 153.70 9.33 158.35 9.32 163.00 C 45.94 162.94 82.55 163.10 119.17 162.92 C 119.15 133.64 119.15 104.37 119.17 75.09 C 116.84 75.02 114.51 74.99 112.18 74.94 C 112.19 74.47 112.19 73.51 112.19 73.04 Z" />
<path fill="#ffffff" opacity="1.00" d=" M 464.19 73.04 C 467.24 72.99 470.28 73.00 473.33 73.02 C 473.32 83.67 473.32 94.33 473.33 104.98 C 457.33 105.04 441.33 105.00 425.32 105.00 C 425.33 109.65 425.32 114.30 425.33 118.95 C 424.79 118.97 423.70 118.99 423.15 119.01 C 423.16 113.67 423.15 108.34 423.15 103.00 C 439.16 102.93 455.16 103.10 471.17 102.92 C 471.15 93.64 471.14 84.37 471.17 75.09 C 468.84 75.02 466.51 74.99 464.19 74.95 C 464.19 74.47 464.19 73.51 464.19 73.04 Z" />
<path fill="#ffffff" opacity="1.00" d=" M 848.19 73.04 C 851.23 72.99 854.28 73.00 857.33 73.02 C 857.32 83.67 857.32 94.33 857.33 104.98 C 841.33 105.03 825.33 105.00 809.32 105.00 C 809.33 109.65 809.32 114.30 809.33 118.95 C 808.79 118.97 807.70 118.99 807.15 119.01 C 807.15 113.67 807.15 108.34 807.15 103.00 C 823.16 102.93 839.16 103.10 855.17 102.92 C 855.14 93.64 855.14 84.37 855.17 75.09 C 852.83 75.02 850.50 74.99 848.19 74.94 C 848.19 74.47 848.19 73.51 848.19 73.04 Z" />
<path fill="#ffffff" opacity="1.00" d=" M 1414.82 73.06 C 1417.83 72.98 1420.85 72.99 1423.89 73.03 C 1423.88 73.52 1423.88 74.48 1423.88 74.97 C 1421.63 74.99 1419.39 75.00 1417.17 75.01 C 1417.18 104.99 1417.16 134.96 1417.18 164.94 C 1405.73 165.06 1394.27 165.05 1382.82 164.94 C 1382.83 159.65 1382.83 154.36 1382.82 149.07 C 1383.41 149.07 1384.59 149.07 1385.18 149.07 C 1385.16 153.72 1385.17 158.36 1385.17 163.01 C 1395.05 162.98 1404.94 162.98 1414.83 163.01 C 1414.82 133.02 1414.84 103.04 1414.82 73.06 Z" />
<path fill="#ffffff" opacity="1.00" d=" M 1456.11 73.03 C 1459.13 72.99 1462.15 72.98 1465.18 73.06 C 1465.16 78.35 1465.16 83.64 1465.18 88.93 C 1464.59 88.93 1463.41 88.93 1462.82 88.93 C 1462.83 84.29 1462.81 79.65 1462.83 75.01 C 1460.58 75.00 1458.34 74.99 1456.12 74.97 C 1456.12 74.48 1456.12 73.52 1456.11 73.03 Z" />
<path fill="#ffffff" opacity="1.00" d=" M 112.23 76.91 C 113.88 76.98 115.53 77.03 117.18 77.09 C 117.16 105.04 117.17 132.99 117.18 160.94 C 81.87 161.09 46.55 160.98 11.23 160.99 C 11.24 157.00 11.24 153.00 11.23 149.01 C 44.90 148.98 78.57 149.00 112.23 149.00 C 112.23 124.97 112.24 100.94 112.23 76.91 Z" />
<path fill="#ffffff" opacity="1.00" d=" M 464.23 76.91 C 465.88 76.98 467.52 77.03 469.18 77.09 C 469.16 85.04 469.17 92.99 469.18 100.94 C 453.18 101.09 437.17 100.97 421.17 101.00 C 421.18 106.97 421.16 112.94 421.18 118.91 C 419.53 118.97 417.88 119.02 416.23 119.09 C 416.24 109.04 416.24 98.99 416.23 88.94 C 432.23 89.07 448.23 88.95 464.23 89.00 C 464.23 84.97 464.24 80.94 464.23 76.91 Z" />
<path fill="#ffffff" opacity="1.00" d=" M 848.23 76.91 C 849.87 76.98 851.52 77.03 853.18 77.09 C 853.16 85.04 853.17 92.99 853.18 100.94 C 837.18 101.09 821.17 100.97 805.17 101.00 C 805.18 106.97 805.16 112.94 805.18 118.91 C 803.52 118.97 801.87 119.02 800.23 119.09 C 800.23 109.04 800.23 98.99 800.23 88.94 C 816.23 89.07 832.23 88.95 848.23 89.00 C 848.23 84.97 848.23 80.94 848.23 76.91 Z" />
<path fill="#ffffff" opacity="1.00" d=" M 1456.15 76.94 C 1457.70 76.98 1459.27 77.00 1460.85 77.02 C 1460.83 81.01 1460.83 84.99 1460.85 88.98 C 1459.27 89.00 1457.70 89.02 1456.15 89.06 C 1456.15 85.02 1456.15 80.98 1456.15 76.94 Z" />
<path fill="#ffffff" opacity="1.00" d=" M 7.15 88.99 C 7.70 89.01 8.79 89.03 9.33 89.05 C 9.32 93.70 9.33 98.35 9.32 103.00 C 32.95 103.03 56.57 102.91 80.19 103.06 C 80.19 103.53 80.19 104.47 80.19 104.94 C 55.84 105.08 31.50 104.98 7.15 105.00 C 7.16 99.66 7.16 94.33 7.15 88.99 Z" />
<path fill="#ffffff" opacity="1.00" d=" M 11.23 89.01 C 34.21 89.01 57.20 88.92 80.18 89.06 C 80.17 93.02 80.17 96.98 80.18 100.94 C 57.20 101.08 34.21 100.98 11.23 100.99 C 11.24 97.00 11.24 93.00 11.23 89.01 Z" />
<path fill="#ffffff" opacity="1.00" d=" M 224.23 88.94 C 234.88 89.10 245.53 88.88 256.18 89.06 C 256.17 93.02 256.17 96.98 256.18 100.94 C 247.18 101.07 238.17 100.98 229.17 101.00 C 229.18 120.98 229.16 140.96 229.18 160.94 C 220.53 161.08 211.88 160.99 203.23 160.99 C 203.24 157.00 203.24 153.00 203.23 149.01 C 210.23 148.95 217.23 149.02 224.23 149.00 C 224.23 128.98 224.24 108.96 224.23 88.94 Z" />
<path fill="#ffffff" opacity="1.00" d=" M 1430.82 89.07 C 1431.41 89.07 1432.59 89.07 1433.18 89.07 C 1433.16 93.71 1433.17 98.35 1433.17 102.99 C 1435.39 103.00 1437.63 103.01 1439.89 103.04 C 1439.89 103.52 1439.88 104.48 1439.88 104.97 C 1436.85 105.01 1433.83 105.01 1430.82 104.94 C 1430.83 99.65 1430.83 94.36 1430.82 89.07 Z" />
<path fill="#ffffff" opacity="1.00" d=" M 1435.15 89.02 C 1436.69 89.00 1438.26 88.98 1439.85 88.94 C 1439.84 92.98 1439.84 97.02 1439.85 101.06 C 1438.26 101.02 1436.69 101.00 1435.15 100.98 C 1435.15 96.99 1435.15 93.01 1435.15 89.02 Z" />
<path fill="#ffffff" opacity="1.00" d=" M 231.15 103.00 C 239.50 103.00 247.84 102.94 256.19 103.06 C 256.19 103.53 256.19 104.47 256.19 104.94 C 248.57 105.05 240.94 105.00 233.32 105.00 C 233.33 124.99 233.32 144.99 233.33 164.98 C 221.94 165.03 210.54 165.00 199.15 165.00 C 199.15 159.66 199.16 154.33 199.15 148.99 C 199.70 149.01 200.79 149.03 201.33 149.05 C 201.32 153.70 201.33 158.35 201.32 163.00 C 211.27 162.94 221.22 163.09 231.17 162.92 C 231.14 142.95 231.17 122.98 231.15 103.00 Z" />
<path fill="#ffffff" opacity="1.00" d=" M 288.19 103.04 C 291.24 102.99 294.28 103.00 297.33 103.02 C 297.32 108.33 297.32 113.64 297.33 118.95 C 296.79 118.97 295.70 118.99 295.15 119.01 C 295.16 114.37 295.14 109.73 295.17 105.09 C 292.84 105.02 290.51 104.99 288.19 104.95 C 288.19 104.47 288.19 103.51 288.19 103.04 Z" />
<path fill="#ffffff" opacity="1.00" d=" M 1472.12 103.03 C 1475.13 102.99 1478.15 102.98 1481.18 103.06 C 1481.16 108.35 1481.16 113.64 1481.18 118.93 C 1480.59 118.93 1479.41 118.93 1478.82 118.93 C 1478.83 114.29 1478.81 109.65 1478.83 105.01 C 1476.58 105.00 1474.34 104.99 1472.12 104.97 C 1472.12 104.48 1472.12 103.52 1472.12 103.03 Z" />
<path fill="#ffffff" opacity="1.00" d=" M 288.23 106.91 C 289.88 106.97 291.53 107.03 293.18 107.09 C 293.17 111.03 293.17 114.97 293.18 118.91 C 291.53 118.97 289.88 119.02 288.23 119.09 C 288.23 115.03 288.23 110.97 288.23 106.91 Z" />
<path fill="#ffffff" opacity="1.00" d=" M 1472.15 106.94 C 1473.70 106.98 1475.27 107.00 1476.85 107.02 C 1476.83 111.01 1476.83 114.99 1476.85 118.98 C 1475.27 119.00 1473.70 119.02 1472.15 119.06 C 1472.15 115.02 1472.15 110.98 1472.15 106.94 Z" />
<path fill="#ffffff" opacity="1.00" d=" M 1175.15 118.99 C 1175.70 119.01 1176.79 119.03 1177.33 119.05 C 1177.31 123.69 1177.33 128.34 1177.32 132.98 C 1179.60 132.99 1181.89 133.01 1184.19 133.06 C 1184.19 133.53 1184.19 134.47 1184.19 134.94 C 1181.17 135.01 1178.16 135.00 1175.15 135.00 C 1175.15 129.66 1175.15 124.33 1175.15 118.99 Z" />
<path fill="#ffffff" opacity="1.00" d=" M 1179.23 118.98 C 1180.87 119.00 1182.51 119.02 1184.18 119.07 C 1184.16 123.02 1184.16 126.98 1184.18 130.93 C 1182.51 130.97 1180.87 131.00 1179.23 131.02 C 1179.23 127.01 1179.23 122.99 1179.23 118.98 Z" />
<path fill="#ffffff" opacity="1.00" d=" M 1446.82 119.07 C 1447.41 119.07 1448.59 119.07 1449.18 119.07 C 1449.16 123.71 1449.17 128.35 1449.17 132.99 C 1451.39 133.00 1453.63 133.01 1455.88 133.03 C 1455.88 133.52 1455.88 134.48 1455.88 134.97 C 1452.85 135.01 1449.83 135.01 1446.82 134.94 C 1446.83 129.65 1446.83 124.36 1446.82 119.07 Z" />
<path fill="#ffffff" opacity="1.00" d=" M 1451.15 119.02 C 1452.69 119.00 1454.26 118.98 1455.85 118.94 C 1455.84 122.98 1455.84 127.02 1455.85 131.06 C 1454.26 131.02 1452.69 131.00 1451.15 130.98 C 1451.15 126.99 1451.15 123.01 1451.15 119.02 Z" />
<path fill="#ffffff" opacity="1.00" d=" M 304.19 133.04 C 307.24 132.99 310.28 133.00 313.33 133.02 C 313.32 143.67 313.32 154.32 313.33 164.98 C 301.94 165.03 290.54 165.00 279.15 165.00 C 279.15 159.66 279.16 154.33 279.15 148.99 C 279.70 149.01 280.79 149.03 281.33 149.05 C 281.32 153.70 281.33 158.35 281.32 163.00 C 291.27 162.94 301.22 163.09 311.17 162.92 C 311.15 153.64 311.14 144.37 311.17 135.09 C 308.84 135.02 306.51 134.99 304.18 134.94 C 304.19 134.47 304.19 133.51 304.19 133.04 Z" />
<path fill="#ffffff" opacity="1.00" d=" M 496.19 133.04 C 499.23 132.98 502.28 133.00 505.33 133.02 C 505.32 143.67 505.32 154.32 505.33 164.98 C 467.27 165.03 429.21 165.00 391.15 165.00 C 391.15 159.66 391.16 154.33 391.15 148.99 C 391.70 149.01 392.79 149.03 393.33 149.05 C 393.32 153.70 393.33 158.35 393.32 163.00 C 429.94 162.94 466.55 163.10 503.17 162.92 C 503.15 153.64 503.14 144.37 503.17 135.09 C 500.84 135.02 498.51 134.99 496.19 134.94 C 496.19 134.47 496.19 133.52 496.19 133.04 Z" />
<path fill="#ffffff" opacity="1.00" d=" M 688.19 133.04 C 691.23 132.98 694.28 133.00 697.33 133.02 C 697.32 143.67 697.32 154.32 697.33 164.98 C 659.27 165.03 621.21 165.00 583.15 165.00 C 583.15 159.66 583.15 154.33 583.15 148.99 C 583.70 149.01 584.79 149.03 585.33 149.05 C 585.32 153.70 585.33 158.35 585.32 163.00 C 621.94 162.94 658.55 163.10 695.17 162.92 C 695.14 153.64 695.14 144.37 695.17 135.09 C 692.83 135.02 690.51 134.99 688.19 134.95 C 688.19 134.47 688.19 133.52 688.19 133.04 Z" />
<path fill="#ffffff" opacity="1.00" d=" M 880.19 133.04 C 883.23 132.98 886.28 133.00 889.33 133.02 C 889.32 143.67 889.32 154.32 889.33 164.98 C 851.27 165.03 813.21 165.00 775.15 165.00 C 775.15 159.66 775.15 154.33 775.15 148.99 C 775.70 149.01 776.79 149.03 777.33 149.05 C 777.32 153.70 777.33 158.35 777.32 163.00 C 813.94 162.94 850.55 163.10 887.17 162.92 C 887.14 153.64 887.14 144.37 887.17 135.09 C 884.83 135.02 882.51 134.99 880.19 134.94 C 880.19 134.47 880.19 133.52 880.19 133.04 Z" />
<path fill="#ffffff" opacity="1.00" d=" M 304.23 136.91 C 305.88 136.97 307.53 137.03 309.18 137.09 C 309.16 145.04 309.17 152.99 309.18 160.94 C 300.53 161.08 291.88 160.99 283.23 160.99 C 283.24 157.00 283.23 153.00 283.23 149.01 C 290.23 148.95 297.23 149.02 304.23 149.00 C 304.23 144.97 304.24 140.94 304.23 136.91 Z" />
<path fill="#ffffff" opacity="1.00" d=" M 496.23 136.91 C 497.88 136.97 499.52 137.03 501.18 137.09 C 501.16 145.04 501.17 152.99 501.18 160.94 C 465.87 161.09 430.55 160.98 395.23 160.99 C 395.23 157.00 395.23 153.00 395.23 149.01 C 428.90 148.98 462.57 149.00 496.23 149.00 C 496.23 144.97 496.24 140.94 496.23 136.91 Z" />
<path fill="#ffffff" opacity="1.00" d=" M 688.23 136.91 C 689.87 136.97 691.52 137.03 693.18 137.09 C 693.16 145.04 693.17 152.99 693.18 160.94 C 657.87 161.09 622.55 160.98 587.23 160.99 C 587.23 157.00 587.23 153.00 587.23 149.01 C 620.90 148.98 654.56 149.00 688.23 149.00 C 688.23 144.97 688.23 140.94 688.23 136.91 Z" />
<path fill="#ffffff" opacity="1.00" d=" M 880.23 136.91 C 881.87 136.97 883.52 137.03 885.18 137.09 C 885.16 145.04 885.17 152.99 885.18 160.94 C 849.87 161.09 814.55 160.98 779.23 160.99 C 779.23 157.00 779.23 153.00 779.23 149.01 C 812.90 148.98 846.56 149.00 880.23 149.00 C 880.23 144.97 880.23 140.94 880.23 136.91 Z" />
</g>
</svg>
