<?xml version="1.0" encoding="UTF-8" standalone="no"?>
<svg
   xmlns:dc="http://purl.org/dc/elements/1.1/"
   xmlns:cc="http://creativecommons.org/ns#"
   xmlns:rdf="http://www.w3.org/1999/02/22-rdf-syntax-ns#"
   xmlns:svg="http://www.w3.org/2000/svg"
   xmlns="http://www.w3.org/2000/svg"
   xmlns:sodipodi="http://sodipodi.sourceforge.net/DTD/sodipodi-0.dtd"
   xmlns:inkscape="http://www.inkscape.org/namespaces/inkscape"
   width="316pt"
   height="167pt"
   viewBox="0 0 316 167"
   version="1.1"
   id="svg2"
   inkscape:version="0.91 r13725"
   sodipodi:docname="banner_short.svg">
  <metadata
     id="metadata146">
    <rdf:RDF>
      <cc:Work
         rdf:about="">
        <dc:format>image/svg+xml</dc:format>
        <dc:type
           rdf:resource="http://purl.org/dc/dcmitype/StillImage" />
        <dc:title></dc:title>
      </cc:Work>
    </rdf:RDF>
  </metadata>
  <defs
     id="defs144" />
  <sodipodi:namedview
     pagecolor="#ffffff"
     bordercolor="#666666"
     borderopacity="1"
     objecttolerance="10"
     gridtolerance="10"
     guidetolerance="10"
     inkscape:pageopacity="0"
     inkscape:pageshadow="2"
     inkscape:window-width="1920"
     inkscape:window-height="1017"
     id="namedview142"
     showgrid="false"
     inkscape:zoom="0.365774"
     inkscape:cx="374.33774"
     inkscape:cy="393.1295"
     inkscape:window-x="-8"
     inkscape:window-y="-8"
     inkscape:window-maximized="1"
     inkscape:current-layer="svg2" />
  <path
     style="opacity:1;fill:#000000"
     inkscape:connector-curvature="0"
     id="path5"
     d="m 0,0 112.23,0 c 0,3.68 0,7.37 0,11.05 3.67,-0.07 7.34,-0.05 11,-0.05 0,12 0,24 0,36 -26.66,-0.01 -53.33,-0.02 -80,0.01 0.01,3.99 0.01,7.99 0,11.98 23,0.03 46,0.01 69,0.01 0,4.02 0.01,8.03 0,12.05 3.67,-0.07 7.34,-0.05 11,-0.05 0,32 0,64 0,96 L 5.17,167 C 5.18,161.04 5.16,155.07 5.18,149.11 3.45,149.02 1.73,148.94 0,148.85 l 0,-29.78 c 26.73,-0.18 53.45,0.05 80.18,-0.12 -0.01,-3.97 -0.01,-7.93 0,-11.9 C 55.18,106.93 30.17,107.02 5.17,107 5.18,101.04 5.16,95.07 5.18,89.11 3.45,89.02 1.73,88.95 0,88.85 L 0,0 m 112.19,13.04 c 0,0.47 0,1.43 -0.01,1.9 2.33,0.05 4.66,0.08 6.99,0.15 -0.02,9.28 -0.02,18.55 0,27.83 C 92.5,43.1 65.82,42.93 39.15,43 c 0.01,5.34 0.01,10.67 0,16.01 0.55,-0.02 1.64,-0.04 2.18,-0.06 -0.01,-4.65 0,-9.3 -0.01,-13.95 26.67,0 53.34,0.04 80.01,-0.02 -0.01,-10.65 -0.01,-21.31 0,-31.96 -3.05,-0.02 -6.09,-0.03 -9.14,0.02 m 0.04,3.87 c 0.01,4.03 0,8.06 0,12.09 -26.66,-0.05 -53.33,0.07 -80,-0.06 0.01,10.05 0.01,20.1 0,30.15 1.65,-0.07 3.3,-0.12 4.95,-0.18 -0.02,-5.97 0,-11.94 -0.01,-17.91 26.67,-0.04 53.34,0.09 80.01,-0.06 -0.01,-7.95 -0.02,-15.9 0,-23.85 -1.65,-0.06 -3.3,-0.11 -4.95,-0.18 m -0.04,56.13 c 0,0.47 0,1.43 -0.01,1.9 2.33,0.05 4.66,0.08 6.99,0.15 -0.02,29.28 -0.02,58.55 0,87.83 -36.62,0.18 -73.23,0.02 -109.85,0.08 0.01,-4.65 0,-9.3 0.01,-13.95 -0.54,-0.02 -1.63,-0.04 -2.18,-0.06 0.01,5.34 0.01,10.67 0,16.01 38.06,0 76.12,0.03 114.18,-0.02 -0.01,-30.65 -0.01,-61.31 0,-91.96 -3.05,-0.02 -6.09,-0.03 -9.14,0.02 m 0.04,3.87 c 0.01,24.03 0,48.06 0,72.09 -33.66,0 -67.33,-0.02 -101,0.01 0.01,3.99 0.01,7.99 0,11.98 35.32,-0.01 70.64,0.1 105.95,-0.05 -0.01,-27.95 -0.02,-55.9 0,-83.85 -1.65,-0.06 -3.3,-0.11 -4.95,-0.18 M 7.15,88.99 c 0.01,5.34 0.01,10.67 0,16.01 24.35,-0.02 48.69,0.08 73.04,-0.06 0,-0.47 0,-1.41 0,-1.88 C 56.57,102.91 32.95,103.03 9.32,103 9.33,98.35 9.32,93.7 9.33,89.05 8.79,89.03 7.7,89.01 7.15,88.99 m 4.08,0.02 c 0.01,3.99 0.01,7.99 0,11.98 22.98,-0.01 45.97,0.09 68.95,-0.05 -0.01,-3.96 -0.01,-7.92 0,-11.88 C 57.2,88.92 34.21,89.01 11.23,89.01 Z" />
  <path
     style="opacity:1;fill:#000000"
     inkscape:connector-curvature="0"
     id="path7"
     d="m 192.17,0 32.06,0 c 0,3.68 0,7.37 0,11.05 3.67,-0.07 7.33,-0.05 11,-0.05 0,16 0.01,32 0,47.99 6.98,0.03 13.97,0.04 20.95,-0.04 -0.02,-9.98 0,-19.97 -0.01,-29.95 5.34,-0.01 10.67,0.03 16.01,-0.05 -0.02,-9.65 0,-19.3 -0.01,-28.95 l 32.06,0 c 0,3.68 0,7.37 0,11.05 3.67,-0.07 7.33,-0.05 11,-0.05 0,12 0,24 0,36 -5.33,0.01 -10.67,-0.04 -16,0.01 0.01,9.99 0,19.99 0,29.99 -5.33,0.01 -10.67,-0.04 -16,0.01 0,3.99 0,7.99 0,11.98 1.67,0.01 3.33,0.01 5,0.01 0,4.02 0,8.03 0,12.05 3.67,-0.07 7.33,-0.05 11,-0.05 0,6 0.01,12 0,17.99 1.67,0.01 3.33,0.01 5,0.01 0,4.02 0,8.03 0,12.05 3.67,-0.07 7.33,-0.05 11,-0.05 0,12 0,24 0,36 l -38.06,0 c 0,-5.98 -0.01,-11.96 0.01,-17.93 -1.68,-0.04 -3.35,-0.07 -5.02,-0.1 0.03,-9.98 0,-19.95 0.02,-29.92 -5.34,-0.08 -10.67,-0.04 -16.01,-0.05 0,-3.98 0,-7.97 0.01,-11.95 -6.98,-0.08 -13.97,-0.07 -20.95,-0.04 0.01,19.99 0,39.99 0,59.99 l -38.06,0 c 0,-5.98 0,-11.96 0.01,-17.93 -1.68,-0.04 -3.35,-0.07 -5.02,-0.1 0.03,-49.66 0,-99.31 0.01,-148.97 m 32.02,13.04 c 0,0.48 0,1.43 0,1.91 2.33,0.04 4.65,0.07 6.98,0.14 -0.04,14.64 0,29.28 -0.02,43.92 0.55,-0.02 1.64,-0.04 2.18,-0.06 -0.01,-15.31 0,-30.62 0,-45.93 -3.05,-0.02 -6.1,-0.03 -9.14,0.02 m 80,0 c 0,0.48 0,1.43 0,1.91 2.32,0.04 4.65,0.07 6.98,0.14 -0.03,9.28 -0.02,18.55 0,27.83 -5.34,0.13 -10.68,0.05 -16.02,0.08 0.01,9.98 -0.01,19.95 0.02,29.92 -5.34,0.13 -10.68,0.05 -16.02,0.08 0,5.34 0.01,10.67 0,16.01 0.55,-0.02 1.64,-0.04 2.18,-0.06 -0.01,-4.65 0,-9.3 -0.01,-13.95 5.34,0.02 10.67,0.02 16.01,-0.02 -0.01,-9.99 0,-19.99 -0.01,-29.98 5.34,0.02 10.67,0.02 16.01,-0.02 -0.01,-10.65 -0.01,-21.31 0,-31.96 -3.05,-0.02 -6.1,-0.03 -9.14,0.02 m -79.96,3.87 c 0.01,14.06 0.01,28.12 0,42.18 1.65,-0.07 3.3,-0.12 4.95,-0.18 -0.01,-13.94 -0.01,-27.88 0,-41.82 -1.65,-0.06 -3.3,-0.11 -4.95,-0.18 m 80,0 c 0.01,4.03 0,8.06 0,12.09 -5.33,-0.02 -10.67,0.06 -16,-0.06 0.01,10.02 0,20.04 0,30.06 -5.33,-0.02 -10.67,0.06 -16,-0.06 0.01,10.05 0.01,20.1 0,30.15 1.65,-0.07 3.3,-0.12 4.95,-0.18 -0.02,-5.97 0,-11.94 -0.01,-17.91 5.34,-0.04 10.67,0.1 16.01,-0.06 -0.02,-9.98 0,-19.96 -0.01,-29.94 5.34,-0.04 10.67,0.1 16.01,-0.06 -0.01,-7.95 -0.02,-15.9 0,-23.85 -1.65,-0.06 -3.3,-0.11 -4.95,-0.18 m -80,72.03 c 0.01,20.02 0,40.04 0,60.06 -7,0.02 -14,-0.05 -21,0.01 0.01,3.99 0.01,7.99 0,11.98 8.65,0 17.3,0.09 25.95,-0.05 -0.02,-19.98 0,-39.96 -0.01,-59.94 9,-0.02 18.01,0.07 27.01,-0.06 -0.01,-3.96 -0.01,-7.92 0,-11.88 -10.65,-0.18 -21.3,0.04 -31.95,-0.12 m 6.92,14.06 c 0.02,19.98 -0.01,39.95 0.02,59.92 -9.95,0.17 -19.9,0.02 -29.85,0.08 0.01,-4.65 0,-9.3 0.01,-13.95 -0.54,-0.02 -1.63,-0.04 -2.18,-0.06 0.01,5.34 0,10.67 0,16.01 11.39,0 22.79,0.03 34.18,-0.02 -0.01,-19.99 0,-39.99 -0.01,-59.98 7.62,0 15.25,0.05 22.87,-0.06 0,-0.47 0,-1.41 0,-1.88 C 247.84,102.94 239.5,103 231.15,103 m 57.04,0.04 c 0,0.47 0,1.43 0,1.91 2.32,0.04 4.65,0.07 6.98,0.14 -0.03,4.64 -0.01,9.28 -0.02,13.92 0.55,-0.02 1.64,-0.04 2.18,-0.06 -0.01,-5.31 -0.01,-10.62 0,-15.93 -3.05,-0.02 -6.09,-0.03 -9.14,0.02 m 0.04,3.87 c 0,4.06 0,8.12 0,12.18 1.65,-0.07 3.3,-0.12 4.95,-0.18 -0.01,-3.94 -0.01,-7.88 0,-11.82 -1.65,-0.06 -3.3,-0.12 -4.95,-0.18 m 15.96,26.13 c 0,0.47 0,1.43 -0.01,1.9 2.33,0.05 4.66,0.08 6.99,0.15 -0.03,9.28 -0.02,18.55 0,27.83 -9.95,0.17 -19.9,0.02 -29.85,0.08 0.01,-4.65 0,-9.3 0.01,-13.95 -0.54,-0.02 -1.63,-0.04 -2.18,-0.06 0.01,5.34 0,10.67 0,16.01 11.39,0 22.79,0.03 34.18,-0.02 -0.01,-10.66 -0.01,-21.31 0,-31.96 -3.05,-0.02 -6.09,-0.03 -9.14,0.02 m 0.04,3.87 c 0.01,4.03 0,8.06 0,12.09 -7,0.02 -14,-0.05 -21,0.01 0,3.99 0.01,7.99 0,11.98 8.65,0 17.3,0.09 25.95,-0.05 -0.01,-7.95 -0.02,-15.9 0,-23.85 -1.65,-0.06 -3.3,-0.12 -4.95,-0.18 z" />
  <path
     style="opacity:1;fill:#ffffff"
     inkscape:connector-curvature="0"
     id="path22"
     d="m 112.19,13.04 c 3.05,-0.05 6.09,-0.04 9.14,-0.02 -0.01,10.65 -0.01,21.31 0,31.96 C 94.66,45.04 67.99,45 41.32,45 c 0.01,4.65 0,9.3 0.01,13.95 -0.54,0.02 -1.63,0.04 -2.18,0.06 0.01,-5.34 0.01,-10.67 0,-16.01 26.67,-0.07 53.35,0.1 80.02,-0.08 -0.02,-9.28 -0.02,-18.55 0,-27.83 -2.33,-0.07 -4.66,-0.1 -6.99,-0.15 0.01,-0.47 0.01,-1.43 0.01,-1.9 z" />
  <path
     style="opacity:1;fill:#ffffff"
     inkscape:connector-curvature="0"
     id="path24"
     d="m 224.19,13.04 c 3.04,-0.05 6.09,-0.04 9.14,-0.02 0,15.31 -0.01,30.62 0,45.93 -0.54,0.02 -1.63,0.04 -2.18,0.06 0.02,-14.64 -0.02,-29.28 0.02,-43.92 -2.33,-0.07 -4.65,-0.1 -6.98,-0.14 0,-0.48 0,-1.43 0,-1.91 z" />
  <path
     style="opacity:1;fill:#ffffff"
     inkscape:connector-curvature="0"
     id="path26"
     d="m 304.19,13.04 c 3.04,-0.05 6.09,-0.04 9.14,-0.02 -0.01,10.65 -0.01,21.31 0,31.96 -5.34,0.04 -10.67,0.04 -16.01,0.02 0.01,9.99 0,19.99 0.01,29.98 -5.34,0.04 -10.67,0.04 -16.01,0.02 0.01,4.65 0,9.3 0.01,13.95 -0.54,0.02 -1.63,0.04 -2.18,0.06 0.01,-5.34 0,-10.67 0,-16.01 5.34,-0.03 10.68,0.05 16.02,-0.08 -0.03,-9.97 -0.01,-19.94 -0.02,-29.92 5.34,-0.03 10.68,0.05 16.02,-0.08 -0.02,-9.28 -0.03,-18.55 0,-27.83 -2.33,-0.07 -4.66,-0.1 -6.98,-0.14 0,-0.48 0,-1.43 0,-1.91 z" />
  <path
     style="opacity:1;fill:#ffffff"
     inkscape:connector-curvature="0"
     id="path42"
     d="m 112.23,16.91 c 1.65,0.07 3.3,0.12 4.95,0.18 -0.02,7.95 -0.01,15.9 0,23.85 -26.67,0.15 -53.34,0.02 -80.01,0.06 0.01,5.97 -0.01,11.94 0.01,17.91 -1.65,0.06 -3.3,0.11 -4.95,0.18 0.01,-10.05 0.01,-20.1 0,-30.15 26.67,0.13 53.34,0.01 80,0.06 0,-4.03 0.01,-8.06 0,-12.09 z" />
  <path
     style="opacity:1;fill:#ffffff"
     inkscape:connector-curvature="0"
     id="path44"
     d="m 224.23,16.91 c 1.65,0.07 3.3,0.12 4.95,0.18 -0.01,13.94 -0.01,27.88 0,41.82 -1.65,0.06 -3.3,0.11 -4.95,0.18 0.01,-14.06 0.01,-28.12 0,-42.18 z" />
  <path
     style="opacity:1;fill:#ffffff"
     inkscape:connector-curvature="0"
     id="path46"
     d="m 304.23,16.91 c 1.65,0.07 3.3,0.12 4.95,0.18 -0.02,7.95 -0.01,15.9 0,23.85 -5.34,0.16 -10.67,0.02 -16.01,0.06 0.01,9.98 -0.01,19.96 0.01,29.94 -5.34,0.16 -10.67,0.02 -16.01,0.06 0.01,5.97 -0.01,11.94 0.01,17.91 -1.65,0.06 -3.3,0.11 -4.95,0.18 0.01,-10.05 0.01,-20.1 0,-30.15 5.33,0.12 10.67,0.04 16,0.06 0,-10.02 0.01,-20.04 0,-30.06 5.33,0.12 10.67,0.04 16,0.06 0,-4.03 0.01,-8.06 0,-12.09 z" />
  <path
     style="opacity:1;fill:#ffffff"
     inkscape:connector-curvature="0"
     id="path80"
     d="m 112.19,73.04 c 3.05,-0.05 6.09,-0.04 9.14,-0.02 -0.01,30.65 -0.01,61.31 0,91.96 C 83.27,165.03 45.21,165 7.15,165 c 0.01,-5.34 0.01,-10.67 0,-16.01 0.55,0.02 1.64,0.04 2.18,0.06 -0.01,4.65 0,9.3 -0.01,13.95 36.62,-0.06 73.23,0.1 109.85,-0.08 -0.02,-29.28 -0.02,-58.55 0,-87.83 -2.33,-0.07 -4.66,-0.1 -6.99,-0.15 0.01,-0.47 0.01,-1.43 0.01,-1.9 z" />
  <path
     style="opacity:1;fill:#ffffff"
     inkscape:connector-curvature="0"
     id="path90"
     d="m 112.23,76.91 c 1.65,0.07 3.3,0.12 4.95,0.18 -0.02,27.95 -0.01,55.9 0,83.85 -35.31,0.15 -70.63,0.04 -105.95,0.05 0.01,-3.99 0.01,-7.99 0,-11.98 33.67,-0.03 67.34,-0.01 101,-0.01 0,-24.03 0.01,-48.06 0,-72.09 z" />
  <path
     style="opacity:1;fill:#ffffff"
     inkscape:connector-curvature="0"
     id="path98"
     d="m 7.15,88.99 c 0.55,0.02 1.64,0.04 2.18,0.06 -0.01,4.65 0,9.3 -0.01,13.95 23.63,0.03 47.25,-0.09 70.87,0.06 0,0.47 0,1.41 0,1.88 -24.35,0.14 -48.69,0.04 -73.04,0.06 0.01,-5.34 0.01,-10.67 0,-16.01 z" />
  <path
     style="opacity:1;fill:#ffffff"
     inkscape:connector-curvature="0"
     id="path100"
     d="m 11.23,89.01 c 22.98,0 45.97,-0.09 68.95,0.05 -0.01,3.96 -0.01,7.92 0,11.88 -22.98,0.14 -45.97,0.04 -68.95,0.05 0.01,-3.99 0.01,-7.99 0,-11.98 z" />
  <path
     style="opacity:1;fill:#ffffff"
     inkscape:connector-curvature="0"
     id="path102"
     d="m 224.23,88.94 c 10.65,0.16 21.3,-0.06 31.95,0.12 -0.01,3.96 -0.01,7.92 0,11.88 -9,0.13 -18.01,0.04 -27.01,0.06 0.01,19.98 -0.01,39.96 0.01,59.94 -8.65,0.14 -17.3,0.05 -25.95,0.05 0.01,-3.99 0.01,-7.99 0,-11.98 7,-0.06 14,0.01 21,-0.01 0,-20.02 0.01,-40.04 0,-60.06 z" />
  <path
     style="opacity:1;fill:#ffffff"
     inkscape:connector-curvature="0"
     id="path108"
     d="m 231.15,103 c 8.35,0 16.69,-0.06 25.04,0.06 0,0.47 0,1.41 0,1.88 -7.62,0.11 -15.25,0.06 -22.87,0.06 0.01,19.99 0,39.99 0.01,59.98 -11.39,0.05 -22.79,0.02 -34.18,0.02 0,-5.34 0.01,-10.67 0,-16.01 0.55,0.02 1.64,0.04 2.18,0.06 -0.01,4.65 0,9.3 -0.01,13.95 9.95,-0.06 19.9,0.09 29.85,-0.08 -0.03,-19.97 0,-39.94 -0.02,-59.92 z" />
  <path
     style="opacity:1;fill:#ffffff"
     inkscape:connector-curvature="0"
     id="path110"
     d="m 288.19,103.04 c 3.05,-0.05 6.09,-0.04 9.14,-0.02 -0.01,5.31 -0.01,10.62 0,15.93 -0.54,0.02 -1.63,0.04 -2.18,0.06 0.01,-4.64 -0.01,-9.28 0.02,-13.92 -2.33,-0.07 -4.66,-0.1 -6.98,-0.14 0,-0.48 0,-1.44 0,-1.91 z" />
  <path
     style="opacity:1;fill:#ffffff"
     inkscape:connector-curvature="0"
     id="path114"
     d="m 288.23,106.91 c 1.65,0.06 3.3,0.12 4.95,0.18 -0.01,3.94 -0.01,7.88 0,11.82 -1.65,0.06 -3.3,0.11 -4.95,0.18 0,-4.06 0,-8.12 0,-12.18 z" />
  <path
     style="opacity:1;fill:#ffffff"
     inkscape:connector-curvature="0"
     id="path126"
     d="m 304.19,133.04 c 3.05,-0.05 6.09,-0.04 9.14,-0.02 -0.01,10.65 -0.01,21.3 0,31.96 -11.39,0.05 -22.79,0.02 -34.18,0.02 0,-5.34 0.01,-10.67 0,-16.01 0.55,0.02 1.64,0.04 2.18,0.06 -0.01,4.65 0,9.3 -0.01,13.95 9.95,-0.06 19.9,0.09 29.85,-0.08 -0.02,-9.28 -0.03,-18.55 0,-27.83 -2.33,-0.07 -4.66,-0.1 -6.99,-0.15 0.01,-0.47 0.01,-1.43 0.01,-1.9 z" />
  <path
     style="opacity:1;fill:#ffffff"
     inkscape:connector-curvature="0"
     id="path134"
     d="m 304.23,136.91 c 1.65,0.06 3.3,0.12 4.95,0.18 -0.02,7.95 -0.01,15.9 0,23.85 -8.65,0.14 -17.3,0.05 -25.95,0.05 0.01,-3.99 0,-7.99 0,-11.98 7,-0.06 14,0.01 21,-0.01 0,-4.03 0.01,-8.06 0,-12.09 z" />
</svg>
